%TF.GenerationSoftware,KiCad,Pcbnew,(6.0.9)*%
%TF.CreationDate,2023-01-24T15:10:40+02:00*%
%TF.ProjectId,cc1101,63633131-3031-42e6-9b69-6361645f7063,rev?*%
%TF.SameCoordinates,Original*%
%TF.FileFunction,Copper,L1,Top*%
%TF.FilePolarity,Positive*%
%FSLAX46Y46*%
G04 Gerber Fmt 4.6, Leading zero omitted, Abs format (unit mm)*
G04 Created by KiCad (PCBNEW (6.0.9)) date 2023-01-24 15:10:40*
%MOMM*%
%LPD*%
G01*
G04 APERTURE LIST*
%TA.AperFunction,ComponentPad*%
%ADD10R,1.700000X1.700000*%
%TD*%
%TA.AperFunction,ComponentPad*%
%ADD11O,1.700000X1.700000*%
%TD*%
%TA.AperFunction,Conductor*%
%ADD12C,0.400000*%
%TD*%
%TA.AperFunction,Conductor*%
%ADD13C,0.500000*%
%TD*%
%TA.AperFunction,Conductor*%
%ADD14C,2.000000*%
%TD*%
G04 APERTURE END LIST*
D10*
%TO.P,J2,1,Pin_1*%
%TO.N,Net-(J3-Pad1)*%
X137145000Y-132105000D03*
D11*
%TO.P,J2,2,Pin_2*%
%TO.N,unconnected-(J2-Pad2)*%
X134605000Y-132105000D03*
%TO.P,J2,3,Pin_3*%
%TO.N,Net-(J3-Pad2)*%
X132065000Y-132105000D03*
%TD*%
D10*
%TO.P,J3,1,Pin_1*%
%TO.N,Net-(J3-Pad1)*%
X121646000Y-136388000D03*
D11*
%TO.P,J3,2,Pin_2*%
%TO.N,Net-(J3-Pad2)*%
X124186000Y-136388000D03*
%TO.P,J3,3,Pin_3*%
%TO.N,Net-(J3-Pad3)*%
X121646000Y-133848000D03*
%TO.P,J3,4,Pin_4*%
%TO.N,Net-(J3-Pad4)*%
X124186000Y-133848000D03*
%TO.P,J3,5,Pin_5*%
%TO.N,Net-(J3-Pad5)*%
X121646000Y-131308000D03*
%TO.P,J3,6,Pin_6*%
%TO.N,Net-(J3-Pad6)*%
X124186000Y-131308000D03*
%TO.P,J3,7,Pin_7*%
%TO.N,Net-(J1-Pad3)*%
X121646000Y-128768000D03*
%TO.P,J3,8,Pin_8*%
%TO.N,unconnected-(J3-Pad8)*%
X124186000Y-128768000D03*
%TD*%
D10*
%TO.P,J1,1,Pin_1*%
%TO.N,unconnected-(J1-Pad1)*%
X96535000Y-132080000D03*
D11*
%TO.P,J1,2,Pin_2*%
%TO.N,Net-(J3-Pad6)*%
X99075000Y-132080000D03*
%TO.P,J1,3,Pin_3*%
%TO.N,Net-(J1-Pad3)*%
X101615000Y-132080000D03*
%TO.P,J1,4,Pin_4*%
%TO.N,Net-(J3-Pad4)*%
X104155000Y-132080000D03*
%TO.P,J1,5,Pin_5*%
%TO.N,Net-(J3-Pad5)*%
X106695000Y-132080000D03*
%TO.P,J1,6,Pin_6*%
%TO.N,Net-(J3-Pad3)*%
X109235000Y-132080000D03*
%TO.P,J1,7,Pin_7*%
%TO.N,unconnected-(J1-Pad7)*%
X111775000Y-132080000D03*
%TO.P,J1,8,Pin_8*%
%TO.N,unconnected-(J1-Pad8)*%
X114315000Y-132080000D03*
%TD*%
D12*
%TO.N,Net-(J3-Pad6)*%
X105171000Y-125984000D02*
X99075000Y-132080000D01*
X125730000Y-125984000D02*
X105171000Y-125984000D01*
X125740000Y-131308000D02*
X126492000Y-130556000D01*
X123703000Y-131308000D02*
X125740000Y-131308000D01*
X126492000Y-130556000D02*
X126492000Y-126746000D01*
X126492000Y-126746000D02*
X125730000Y-125984000D01*
%TO.N,Net-(J3-Pad4)*%
X100853000Y-135382000D02*
X104155000Y-132080000D01*
X93726000Y-133858000D02*
X95250000Y-135382000D01*
X93726000Y-130556000D02*
X93726000Y-133858000D01*
X95504000Y-128778000D02*
X93726000Y-130556000D01*
X95250000Y-135382000D02*
X100853000Y-135382000D01*
X104140000Y-124460000D02*
X99822000Y-128778000D01*
X99822000Y-128778000D02*
X95504000Y-128778000D01*
X126238000Y-124460000D02*
X104140000Y-124460000D01*
X128016000Y-131318000D02*
X128016000Y-126238000D01*
X128016000Y-126238000D02*
X126238000Y-124460000D01*
X125486000Y-133848000D02*
X128016000Y-131318000D01*
X124186000Y-133848000D02*
X125486000Y-133848000D01*
D13*
%TO.N,Net-(J3-Pad1)*%
X121646000Y-137648000D02*
X121646000Y-136388000D01*
X129909138Y-139700000D02*
X123698000Y-139700000D01*
X137165000Y-132444138D02*
X129909138Y-139700000D01*
D14*
X137165000Y-132080000D02*
X137165000Y-132444138D01*
D13*
X123698000Y-139700000D02*
X121646000Y-137648000D01*
%TO.N,Net-(J3-Pad2)*%
X129794000Y-132080000D02*
X132085000Y-132080000D01*
X125486000Y-136388000D02*
X129794000Y-132080000D01*
X124186000Y-136388000D02*
X125486000Y-136388000D01*
D12*
%TO.N,Net-(J1-Pad3)*%
X104927000Y-128768000D02*
X101615000Y-132080000D01*
X121163000Y-128768000D02*
X104927000Y-128768000D01*
%TO.N,Net-(J3-Pad5)*%
X108727000Y-130048000D02*
X106695000Y-132080000D01*
X119903000Y-130048000D02*
X108727000Y-130048000D01*
X121163000Y-131308000D02*
X119903000Y-130048000D01*
%TO.N,Net-(J3-Pad3)*%
X111003000Y-133848000D02*
X109235000Y-132080000D01*
X121163000Y-133848000D02*
X111003000Y-133848000D01*
%TD*%
M02*
