%TF.GenerationSoftware,KiCad,Pcbnew,(6.0.9)*%
%TF.CreationDate,2023-01-24T15:10:45+02:00*%
%TF.ProjectId,cc1101,63633131-3031-42e6-9b69-6361645f7063,rev?*%
%TF.SameCoordinates,Original*%
%TF.FileFunction,Drillmap*%
%TF.FilePolarity,Positive*%
%FSLAX45Y45*%
G04 Gerber Fmt 4.5, Leading zero omitted, Abs format (unit mm)*
G04 Created by KiCad (PCBNEW (6.0.9)) date 2023-01-24 15:10:45*
%MOMM*%
%LPD*%
G01*
G04 APERTURE LIST*
%ADD10C,0.100000*%
%ADD11C,0.200000*%
G04 APERTURE END LIST*
D10*
X13970000Y-12446000D02*
G75*
G03*
X13716000Y-12192000I-254000J0D01*
G01*
X13716000Y-14224000D02*
G75*
G03*
X13970000Y-13970000I0J254000D01*
G01*
X9144000Y-13970000D02*
G75*
G03*
X9398000Y-14224000I254000J0D01*
G01*
X9398000Y-12192000D02*
G75*
G03*
X9144000Y-12446000I0J-254000D01*
G01*
X13716000Y-12192000D02*
X9398000Y-12192000D01*
X13970000Y-13970000D02*
X13970000Y-12446000D01*
X9398000Y-14224000D02*
X13716000Y-14224000D01*
X9144000Y-12446000D02*
X9144000Y-13970000D01*
D11*
D10*
X9603500Y-13158000D02*
X9703500Y-13258000D01*
X9703500Y-13158000D02*
X9603500Y-13258000D01*
X9857500Y-13158000D02*
X9957500Y-13258000D01*
X9957500Y-13158000D02*
X9857500Y-13258000D01*
X10111500Y-13158000D02*
X10211500Y-13258000D01*
X10211500Y-13158000D02*
X10111500Y-13258000D01*
X10365500Y-13158000D02*
X10465500Y-13258000D01*
X10465500Y-13158000D02*
X10365500Y-13258000D01*
X10619500Y-13158000D02*
X10719500Y-13258000D01*
X10719500Y-13158000D02*
X10619500Y-13258000D01*
X10873500Y-13158000D02*
X10973500Y-13258000D01*
X10973500Y-13158000D02*
X10873500Y-13258000D01*
X11127500Y-13158000D02*
X11227500Y-13258000D01*
X11227500Y-13158000D02*
X11127500Y-13258000D01*
X11381500Y-13158000D02*
X11481500Y-13258000D01*
X11481500Y-13158000D02*
X11381500Y-13258000D01*
X12114600Y-12826800D02*
X12214600Y-12926800D01*
X12214600Y-12826800D02*
X12114600Y-12926800D01*
X12114600Y-13080800D02*
X12214600Y-13180800D01*
X12214600Y-13080800D02*
X12114600Y-13180800D01*
X12114600Y-13334800D02*
X12214600Y-13434800D01*
X12214600Y-13334800D02*
X12114600Y-13434800D01*
X12114600Y-13588800D02*
X12214600Y-13688800D01*
X12214600Y-13588800D02*
X12114600Y-13688800D01*
X12368600Y-12826800D02*
X12468600Y-12926800D01*
X12468600Y-12826800D02*
X12368600Y-12926800D01*
X12368600Y-13080800D02*
X12468600Y-13180800D01*
X12468600Y-13080800D02*
X12368600Y-13180800D01*
X12368600Y-13334800D02*
X12468600Y-13434800D01*
X12468600Y-13334800D02*
X12368600Y-13434800D01*
X12368600Y-13588800D02*
X12468600Y-13688800D01*
X12468600Y-13588800D02*
X12368600Y-13688800D01*
X13156500Y-13160500D02*
X13256500Y-13260500D01*
X13256500Y-13160500D02*
X13156500Y-13260500D01*
X13410500Y-13160500D02*
X13510500Y-13260500D01*
X13510500Y-13160500D02*
X13410500Y-13260500D01*
X13664500Y-13160500D02*
X13764500Y-13260500D01*
X13764500Y-13160500D02*
X13664500Y-13260500D01*
D11*
X9396619Y-14539476D02*
X9396619Y-14339476D01*
X9444238Y-14339476D01*
X9472810Y-14349000D01*
X9491857Y-14368048D01*
X9501381Y-14387095D01*
X9510905Y-14425190D01*
X9510905Y-14453762D01*
X9501381Y-14491857D01*
X9491857Y-14510905D01*
X9472810Y-14529952D01*
X9444238Y-14539476D01*
X9396619Y-14539476D01*
X9596619Y-14539476D02*
X9596619Y-14406143D01*
X9596619Y-14444238D02*
X9606143Y-14425190D01*
X9615667Y-14415667D01*
X9634714Y-14406143D01*
X9653762Y-14406143D01*
X9720429Y-14539476D02*
X9720429Y-14406143D01*
X9720429Y-14339476D02*
X9710905Y-14349000D01*
X9720429Y-14358524D01*
X9729952Y-14349000D01*
X9720429Y-14339476D01*
X9720429Y-14358524D01*
X9844238Y-14539476D02*
X9825190Y-14529952D01*
X9815667Y-14510905D01*
X9815667Y-14339476D01*
X9949000Y-14539476D02*
X9929952Y-14529952D01*
X9920429Y-14510905D01*
X9920429Y-14339476D01*
X10177571Y-14539476D02*
X10177571Y-14339476D01*
X10244238Y-14482333D01*
X10310905Y-14339476D01*
X10310905Y-14539476D01*
X10491857Y-14539476D02*
X10491857Y-14434714D01*
X10482333Y-14415667D01*
X10463286Y-14406143D01*
X10425190Y-14406143D01*
X10406143Y-14415667D01*
X10491857Y-14529952D02*
X10472810Y-14539476D01*
X10425190Y-14539476D01*
X10406143Y-14529952D01*
X10396619Y-14510905D01*
X10396619Y-14491857D01*
X10406143Y-14472809D01*
X10425190Y-14463286D01*
X10472810Y-14463286D01*
X10491857Y-14453762D01*
X10587095Y-14406143D02*
X10587095Y-14606143D01*
X10587095Y-14415667D02*
X10606143Y-14406143D01*
X10644238Y-14406143D01*
X10663286Y-14415667D01*
X10672810Y-14425190D01*
X10682333Y-14444238D01*
X10682333Y-14501381D01*
X10672810Y-14520428D01*
X10663286Y-14529952D01*
X10644238Y-14539476D01*
X10606143Y-14539476D01*
X10587095Y-14529952D01*
X10768048Y-14520428D02*
X10777571Y-14529952D01*
X10768048Y-14539476D01*
X10758524Y-14529952D01*
X10768048Y-14520428D01*
X10768048Y-14539476D01*
X10768048Y-14415667D02*
X10777571Y-14425190D01*
X10768048Y-14434714D01*
X10758524Y-14425190D01*
X10768048Y-14415667D01*
X10768048Y-14434714D01*
D10*
X9039000Y-14819000D02*
X9139000Y-14919000D01*
X9139000Y-14819000D02*
X9039000Y-14919000D01*
D11*
X9501381Y-14959476D02*
X9387095Y-14959476D01*
X9444238Y-14959476D02*
X9444238Y-14759476D01*
X9425190Y-14788048D01*
X9406143Y-14807095D01*
X9387095Y-14816619D01*
X9587095Y-14940428D02*
X9596619Y-14949952D01*
X9587095Y-14959476D01*
X9577571Y-14949952D01*
X9587095Y-14940428D01*
X9587095Y-14959476D01*
X9720429Y-14759476D02*
X9739476Y-14759476D01*
X9758524Y-14769000D01*
X9768048Y-14778524D01*
X9777571Y-14797571D01*
X9787095Y-14835667D01*
X9787095Y-14883286D01*
X9777571Y-14921381D01*
X9768048Y-14940428D01*
X9758524Y-14949952D01*
X9739476Y-14959476D01*
X9720429Y-14959476D01*
X9701381Y-14949952D01*
X9691857Y-14940428D01*
X9682333Y-14921381D01*
X9672810Y-14883286D01*
X9672810Y-14835667D01*
X9682333Y-14797571D01*
X9691857Y-14778524D01*
X9701381Y-14769000D01*
X9720429Y-14759476D01*
X9910905Y-14759476D02*
X9929952Y-14759476D01*
X9949000Y-14769000D01*
X9958524Y-14778524D01*
X9968048Y-14797571D01*
X9977571Y-14835667D01*
X9977571Y-14883286D01*
X9968048Y-14921381D01*
X9958524Y-14940428D01*
X9949000Y-14949952D01*
X9929952Y-14959476D01*
X9910905Y-14959476D01*
X9891857Y-14949952D01*
X9882333Y-14940428D01*
X9872810Y-14921381D01*
X9863286Y-14883286D01*
X9863286Y-14835667D01*
X9872810Y-14797571D01*
X9882333Y-14778524D01*
X9891857Y-14769000D01*
X9910905Y-14759476D01*
X10101381Y-14759476D02*
X10120429Y-14759476D01*
X10139476Y-14769000D01*
X10149000Y-14778524D01*
X10158524Y-14797571D01*
X10168048Y-14835667D01*
X10168048Y-14883286D01*
X10158524Y-14921381D01*
X10149000Y-14940428D01*
X10139476Y-14949952D01*
X10120429Y-14959476D01*
X10101381Y-14959476D01*
X10082333Y-14949952D01*
X10072810Y-14940428D01*
X10063286Y-14921381D01*
X10053762Y-14883286D01*
X10053762Y-14835667D01*
X10063286Y-14797571D01*
X10072810Y-14778524D01*
X10082333Y-14769000D01*
X10101381Y-14759476D01*
X10253762Y-14959476D02*
X10253762Y-14826143D01*
X10253762Y-14845190D02*
X10263286Y-14835667D01*
X10282333Y-14826143D01*
X10310905Y-14826143D01*
X10329952Y-14835667D01*
X10339476Y-14854714D01*
X10339476Y-14959476D01*
X10339476Y-14854714D02*
X10349000Y-14835667D01*
X10368048Y-14826143D01*
X10396619Y-14826143D01*
X10415667Y-14835667D01*
X10425190Y-14854714D01*
X10425190Y-14959476D01*
X10520429Y-14959476D02*
X10520429Y-14826143D01*
X10520429Y-14845190D02*
X10529952Y-14835667D01*
X10549000Y-14826143D01*
X10577571Y-14826143D01*
X10596619Y-14835667D01*
X10606143Y-14854714D01*
X10606143Y-14959476D01*
X10606143Y-14854714D02*
X10615667Y-14835667D01*
X10634714Y-14826143D01*
X10663286Y-14826143D01*
X10682333Y-14835667D01*
X10691857Y-14854714D01*
X10691857Y-14959476D01*
X11082333Y-14749952D02*
X10910905Y-15007095D01*
X11339476Y-14759476D02*
X11358524Y-14759476D01*
X11377571Y-14769000D01*
X11387095Y-14778524D01*
X11396619Y-14797571D01*
X11406143Y-14835667D01*
X11406143Y-14883286D01*
X11396619Y-14921381D01*
X11387095Y-14940428D01*
X11377571Y-14949952D01*
X11358524Y-14959476D01*
X11339476Y-14959476D01*
X11320428Y-14949952D01*
X11310905Y-14940428D01*
X11301381Y-14921381D01*
X11291857Y-14883286D01*
X11291857Y-14835667D01*
X11301381Y-14797571D01*
X11310905Y-14778524D01*
X11320428Y-14769000D01*
X11339476Y-14759476D01*
X11491857Y-14940428D02*
X11501381Y-14949952D01*
X11491857Y-14959476D01*
X11482333Y-14949952D01*
X11491857Y-14940428D01*
X11491857Y-14959476D01*
X11625190Y-14759476D02*
X11644238Y-14759476D01*
X11663286Y-14769000D01*
X11672809Y-14778524D01*
X11682333Y-14797571D01*
X11691857Y-14835667D01*
X11691857Y-14883286D01*
X11682333Y-14921381D01*
X11672809Y-14940428D01*
X11663286Y-14949952D01*
X11644238Y-14959476D01*
X11625190Y-14959476D01*
X11606143Y-14949952D01*
X11596619Y-14940428D01*
X11587095Y-14921381D01*
X11577571Y-14883286D01*
X11577571Y-14835667D01*
X11587095Y-14797571D01*
X11596619Y-14778524D01*
X11606143Y-14769000D01*
X11625190Y-14759476D01*
X11758524Y-14759476D02*
X11882333Y-14759476D01*
X11815667Y-14835667D01*
X11844238Y-14835667D01*
X11863286Y-14845190D01*
X11872809Y-14854714D01*
X11882333Y-14873762D01*
X11882333Y-14921381D01*
X11872809Y-14940428D01*
X11863286Y-14949952D01*
X11844238Y-14959476D01*
X11787095Y-14959476D01*
X11768048Y-14949952D01*
X11758524Y-14940428D01*
X11977571Y-14959476D02*
X12015667Y-14959476D01*
X12034714Y-14949952D01*
X12044238Y-14940428D01*
X12063286Y-14911857D01*
X12072809Y-14873762D01*
X12072809Y-14797571D01*
X12063286Y-14778524D01*
X12053762Y-14769000D01*
X12034714Y-14759476D01*
X11996619Y-14759476D01*
X11977571Y-14769000D01*
X11968048Y-14778524D01*
X11958524Y-14797571D01*
X11958524Y-14845190D01*
X11968048Y-14864238D01*
X11977571Y-14873762D01*
X11996619Y-14883286D01*
X12034714Y-14883286D01*
X12053762Y-14873762D01*
X12063286Y-14864238D01*
X12072809Y-14845190D01*
X12244238Y-14826143D02*
X12244238Y-14959476D01*
X12196619Y-14749952D02*
X12149000Y-14892809D01*
X12272809Y-14892809D01*
X12339476Y-14759476D02*
X12339476Y-14797571D01*
X12415667Y-14759476D02*
X12415667Y-14797571D01*
X12710905Y-15035667D02*
X12701381Y-15026143D01*
X12682333Y-14997571D01*
X12672809Y-14978524D01*
X12663286Y-14949952D01*
X12653762Y-14902333D01*
X12653762Y-14864238D01*
X12663286Y-14816619D01*
X12672809Y-14788048D01*
X12682333Y-14769000D01*
X12701381Y-14740428D01*
X12710905Y-14730905D01*
X12891857Y-14959476D02*
X12777571Y-14959476D01*
X12834714Y-14959476D02*
X12834714Y-14759476D01*
X12815667Y-14788048D01*
X12796619Y-14807095D01*
X12777571Y-14816619D01*
X12987095Y-14959476D02*
X13025190Y-14959476D01*
X13044238Y-14949952D01*
X13053762Y-14940428D01*
X13072809Y-14911857D01*
X13082333Y-14873762D01*
X13082333Y-14797571D01*
X13072809Y-14778524D01*
X13063286Y-14769000D01*
X13044238Y-14759476D01*
X13006143Y-14759476D01*
X12987095Y-14769000D01*
X12977571Y-14778524D01*
X12968048Y-14797571D01*
X12968048Y-14845190D01*
X12977571Y-14864238D01*
X12987095Y-14873762D01*
X13006143Y-14883286D01*
X13044238Y-14883286D01*
X13063286Y-14873762D01*
X13072809Y-14864238D01*
X13082333Y-14845190D01*
X13320428Y-14959476D02*
X13320428Y-14759476D01*
X13406143Y-14959476D02*
X13406143Y-14854714D01*
X13396619Y-14835667D01*
X13377571Y-14826143D01*
X13349000Y-14826143D01*
X13329952Y-14835667D01*
X13320428Y-14845190D01*
X13529952Y-14959476D02*
X13510905Y-14949952D01*
X13501381Y-14940428D01*
X13491857Y-14921381D01*
X13491857Y-14864238D01*
X13501381Y-14845190D01*
X13510905Y-14835667D01*
X13529952Y-14826143D01*
X13558524Y-14826143D01*
X13577571Y-14835667D01*
X13587095Y-14845190D01*
X13596619Y-14864238D01*
X13596619Y-14921381D01*
X13587095Y-14940428D01*
X13577571Y-14949952D01*
X13558524Y-14959476D01*
X13529952Y-14959476D01*
X13710905Y-14959476D02*
X13691857Y-14949952D01*
X13682333Y-14930905D01*
X13682333Y-14759476D01*
X13863286Y-14949952D02*
X13844238Y-14959476D01*
X13806143Y-14959476D01*
X13787095Y-14949952D01*
X13777571Y-14930905D01*
X13777571Y-14854714D01*
X13787095Y-14835667D01*
X13806143Y-14826143D01*
X13844238Y-14826143D01*
X13863286Y-14835667D01*
X13872809Y-14854714D01*
X13872809Y-14873762D01*
X13777571Y-14892809D01*
X13949000Y-14949952D02*
X13968048Y-14959476D01*
X14006143Y-14959476D01*
X14025190Y-14949952D01*
X14034714Y-14930905D01*
X14034714Y-14921381D01*
X14025190Y-14902333D01*
X14006143Y-14892809D01*
X13977571Y-14892809D01*
X13958524Y-14883286D01*
X13949000Y-14864238D01*
X13949000Y-14854714D01*
X13958524Y-14835667D01*
X13977571Y-14826143D01*
X14006143Y-14826143D01*
X14025190Y-14835667D01*
X14101381Y-15035667D02*
X14110905Y-15026143D01*
X14129952Y-14997571D01*
X14139476Y-14978524D01*
X14149000Y-14949952D01*
X14158524Y-14902333D01*
X14158524Y-14864238D01*
X14149000Y-14816619D01*
X14139476Y-14788048D01*
X14129952Y-14769000D01*
X14110905Y-14740428D01*
X14101381Y-14730905D01*
M02*
