%TF.GenerationSoftware,KiCad,Pcbnew,(6.0.9)*%
%TF.CreationDate,2023-01-24T15:10:40+02:00*%
%TF.ProjectId,cc1101,63633131-3031-42e6-9b69-6361645f7063,rev?*%
%TF.SameCoordinates,Original*%
%TF.FileFunction,Legend,Top*%
%TF.FilePolarity,Positive*%
%FSLAX46Y46*%
G04 Gerber Fmt 4.6, Leading zero omitted, Abs format (unit mm)*
G04 Created by KiCad (PCBNEW (6.0.9)) date 2023-01-24 15:10:40*
%MOMM*%
%LPD*%
G01*
G04 APERTURE LIST*
%ADD10C,0.150000*%
%ADD11C,0.120000*%
G04 APERTURE END LIST*
D10*
X100600380Y-137045571D02*
X100267047Y-137045571D01*
X100267047Y-137569380D02*
X100267047Y-136569380D01*
X100743238Y-136569380D01*
X101267047Y-137569380D02*
X101171809Y-137521761D01*
X101124190Y-137426523D01*
X101124190Y-136569380D01*
X101648000Y-137569380D02*
X101648000Y-136902714D01*
X101648000Y-136569380D02*
X101600380Y-136617000D01*
X101648000Y-136664619D01*
X101695619Y-136617000D01*
X101648000Y-136569380D01*
X101648000Y-136664619D01*
X102124190Y-136902714D02*
X102124190Y-137902714D01*
X102124190Y-136950333D02*
X102219428Y-136902714D01*
X102409904Y-136902714D01*
X102505142Y-136950333D01*
X102552761Y-136997952D01*
X102600380Y-137093190D01*
X102600380Y-137378904D01*
X102552761Y-137474142D01*
X102505142Y-137521761D01*
X102409904Y-137569380D01*
X102219428Y-137569380D01*
X102124190Y-137521761D01*
X103028952Y-136902714D02*
X103028952Y-137902714D01*
X103028952Y-136950333D02*
X103124190Y-136902714D01*
X103314666Y-136902714D01*
X103409904Y-136950333D01*
X103457523Y-136997952D01*
X103505142Y-137093190D01*
X103505142Y-137378904D01*
X103457523Y-137474142D01*
X103409904Y-137521761D01*
X103314666Y-137569380D01*
X103124190Y-137569380D01*
X103028952Y-137521761D01*
X104314666Y-137521761D02*
X104219428Y-137569380D01*
X104028952Y-137569380D01*
X103933714Y-137521761D01*
X103886095Y-137426523D01*
X103886095Y-137045571D01*
X103933714Y-136950333D01*
X104028952Y-136902714D01*
X104219428Y-136902714D01*
X104314666Y-136950333D01*
X104362285Y-137045571D01*
X104362285Y-137140809D01*
X103886095Y-137236047D01*
X104790857Y-137569380D02*
X104790857Y-136902714D01*
X104790857Y-137093190D02*
X104838476Y-136997952D01*
X104886095Y-136950333D01*
X104981333Y-136902714D01*
X105076571Y-136902714D01*
X106076571Y-136569380D02*
X106743238Y-136569380D01*
X106076571Y-137569380D01*
X106743238Y-137569380D01*
X107505142Y-137521761D02*
X107409904Y-137569380D01*
X107219428Y-137569380D01*
X107124190Y-137521761D01*
X107076571Y-137426523D01*
X107076571Y-137045571D01*
X107124190Y-136950333D01*
X107219428Y-136902714D01*
X107409904Y-136902714D01*
X107505142Y-136950333D01*
X107552761Y-137045571D01*
X107552761Y-137140809D01*
X107076571Y-137236047D01*
X107981333Y-137569380D02*
X107981333Y-136902714D01*
X107981333Y-137093190D02*
X108028952Y-136997952D01*
X108076571Y-136950333D01*
X108171809Y-136902714D01*
X108267047Y-136902714D01*
X108743238Y-137569380D02*
X108648000Y-137521761D01*
X108600380Y-137474142D01*
X108552761Y-137378904D01*
X108552761Y-137093190D01*
X108600380Y-136997952D01*
X108648000Y-136950333D01*
X108743238Y-136902714D01*
X108886095Y-136902714D01*
X108981333Y-136950333D01*
X109028952Y-136997952D01*
X109076571Y-137093190D01*
X109076571Y-137378904D01*
X109028952Y-137474142D01*
X108981333Y-137521761D01*
X108886095Y-137569380D01*
X108743238Y-137569380D01*
X96028952Y-139084142D02*
X95981333Y-139131761D01*
X95838476Y-139179380D01*
X95743238Y-139179380D01*
X95600380Y-139131761D01*
X95505142Y-139036523D01*
X95457523Y-138941285D01*
X95409904Y-138750809D01*
X95409904Y-138607952D01*
X95457523Y-138417476D01*
X95505142Y-138322238D01*
X95600380Y-138227000D01*
X95743238Y-138179380D01*
X95838476Y-138179380D01*
X95981333Y-138227000D01*
X96028952Y-138274619D01*
X97028952Y-139084142D02*
X96981333Y-139131761D01*
X96838476Y-139179380D01*
X96743238Y-139179380D01*
X96600380Y-139131761D01*
X96505142Y-139036523D01*
X96457523Y-138941285D01*
X96409904Y-138750809D01*
X96409904Y-138607952D01*
X96457523Y-138417476D01*
X96505142Y-138322238D01*
X96600380Y-138227000D01*
X96743238Y-138179380D01*
X96838476Y-138179380D01*
X96981333Y-138227000D01*
X97028952Y-138274619D01*
X97981333Y-139179380D02*
X97409904Y-139179380D01*
X97695619Y-139179380D02*
X97695619Y-138179380D01*
X97600380Y-138322238D01*
X97505142Y-138417476D01*
X97409904Y-138465095D01*
X98933714Y-139179380D02*
X98362285Y-139179380D01*
X98648000Y-139179380D02*
X98648000Y-138179380D01*
X98552761Y-138322238D01*
X98457523Y-138417476D01*
X98362285Y-138465095D01*
X99552761Y-138179380D02*
X99648000Y-138179380D01*
X99743238Y-138227000D01*
X99790857Y-138274619D01*
X99838476Y-138369857D01*
X99886095Y-138560333D01*
X99886095Y-138798428D01*
X99838476Y-138988904D01*
X99790857Y-139084142D01*
X99743238Y-139131761D01*
X99648000Y-139179380D01*
X99552761Y-139179380D01*
X99457523Y-139131761D01*
X99409904Y-139084142D01*
X99362285Y-138988904D01*
X99314666Y-138798428D01*
X99314666Y-138560333D01*
X99362285Y-138369857D01*
X99409904Y-138274619D01*
X99457523Y-138227000D01*
X99552761Y-138179380D01*
X100838476Y-139179380D02*
X100267047Y-139179380D01*
X100552761Y-139179380D02*
X100552761Y-138179380D01*
X100457523Y-138322238D01*
X100362285Y-138417476D01*
X100267047Y-138465095D01*
X102028952Y-138655571D02*
X102362285Y-138655571D01*
X102505142Y-139179380D02*
X102028952Y-139179380D01*
X102028952Y-138179380D01*
X102505142Y-138179380D01*
X102838476Y-139179380D02*
X103362285Y-138512714D01*
X102838476Y-138512714D02*
X103362285Y-139179380D01*
X103600380Y-138512714D02*
X103981333Y-138512714D01*
X103743238Y-138179380D02*
X103743238Y-139036523D01*
X103790857Y-139131761D01*
X103886095Y-139179380D01*
X103981333Y-139179380D01*
X104695619Y-139131761D02*
X104600380Y-139179380D01*
X104409904Y-139179380D01*
X104314666Y-139131761D01*
X104267047Y-139036523D01*
X104267047Y-138655571D01*
X104314666Y-138560333D01*
X104409904Y-138512714D01*
X104600380Y-138512714D01*
X104695619Y-138560333D01*
X104743238Y-138655571D01*
X104743238Y-138750809D01*
X104267047Y-138846047D01*
X105171809Y-139179380D02*
X105171809Y-138512714D01*
X105171809Y-138703190D02*
X105219428Y-138607952D01*
X105267047Y-138560333D01*
X105362285Y-138512714D01*
X105457523Y-138512714D01*
X105790857Y-138512714D02*
X105790857Y-139179380D01*
X105790857Y-138607952D02*
X105838476Y-138560333D01*
X105933714Y-138512714D01*
X106076571Y-138512714D01*
X106171809Y-138560333D01*
X106219428Y-138655571D01*
X106219428Y-139179380D01*
X107124190Y-139179380D02*
X107124190Y-138655571D01*
X107076571Y-138560333D01*
X106981333Y-138512714D01*
X106790857Y-138512714D01*
X106695619Y-138560333D01*
X107124190Y-139131761D02*
X107028952Y-139179380D01*
X106790857Y-139179380D01*
X106695619Y-139131761D01*
X106648000Y-139036523D01*
X106648000Y-138941285D01*
X106695619Y-138846047D01*
X106790857Y-138798428D01*
X107028952Y-138798428D01*
X107124190Y-138750809D01*
X107743238Y-139179380D02*
X107648000Y-139131761D01*
X107600380Y-139036523D01*
X107600380Y-138179380D01*
X108886095Y-139179380D02*
X108886095Y-138512714D01*
X108886095Y-138607952D02*
X108933714Y-138560333D01*
X109028952Y-138512714D01*
X109171809Y-138512714D01*
X109267047Y-138560333D01*
X109314666Y-138655571D01*
X109314666Y-139179380D01*
X109314666Y-138655571D02*
X109362285Y-138560333D01*
X109457523Y-138512714D01*
X109600380Y-138512714D01*
X109695619Y-138560333D01*
X109743238Y-138655571D01*
X109743238Y-139179380D01*
X110362285Y-139179380D02*
X110267047Y-139131761D01*
X110219428Y-139084142D01*
X110171809Y-138988904D01*
X110171809Y-138703190D01*
X110219428Y-138607952D01*
X110267047Y-138560333D01*
X110362285Y-138512714D01*
X110505142Y-138512714D01*
X110600380Y-138560333D01*
X110648000Y-138607952D01*
X110695619Y-138703190D01*
X110695619Y-138988904D01*
X110648000Y-139084142D01*
X110600380Y-139131761D01*
X110505142Y-139179380D01*
X110362285Y-139179380D01*
X111552761Y-139179380D02*
X111552761Y-138179380D01*
X111552761Y-139131761D02*
X111457523Y-139179380D01*
X111267047Y-139179380D01*
X111171809Y-139131761D01*
X111124190Y-139084142D01*
X111076571Y-138988904D01*
X111076571Y-138703190D01*
X111124190Y-138607952D01*
X111171809Y-138560333D01*
X111267047Y-138512714D01*
X111457523Y-138512714D01*
X111552761Y-138560333D01*
X112457523Y-138512714D02*
X112457523Y-139179380D01*
X112028952Y-138512714D02*
X112028952Y-139036523D01*
X112076571Y-139131761D01*
X112171809Y-139179380D01*
X112314666Y-139179380D01*
X112409904Y-139131761D01*
X112457523Y-139084142D01*
X113076571Y-139179380D02*
X112981333Y-139131761D01*
X112933714Y-139036523D01*
X112933714Y-138179380D01*
X113838476Y-139131761D02*
X113743238Y-139179380D01*
X113552761Y-139179380D01*
X113457523Y-139131761D01*
X113409904Y-139036523D01*
X113409904Y-138655571D01*
X113457523Y-138560333D01*
X113552761Y-138512714D01*
X113743238Y-138512714D01*
X113838476Y-138560333D01*
X113886095Y-138655571D01*
X113886095Y-138750809D01*
X113409904Y-138846047D01*
%TO.C,J3*%
X122582666Y-138610380D02*
X122582666Y-139324666D01*
X122535047Y-139467523D01*
X122439809Y-139562761D01*
X122296952Y-139610380D01*
X122201714Y-139610380D01*
X122963619Y-138610380D02*
X123582666Y-138610380D01*
X123249333Y-138991333D01*
X123392190Y-138991333D01*
X123487428Y-139038952D01*
X123535047Y-139086571D01*
X123582666Y-139181809D01*
X123582666Y-139419904D01*
X123535047Y-139515142D01*
X123487428Y-139562761D01*
X123392190Y-139610380D01*
X123106476Y-139610380D01*
X123011238Y-139562761D01*
X122963619Y-139515142D01*
D11*
X121646000Y-137718000D02*
X120316000Y-137718000D01*
X122916000Y-137718000D02*
X122916000Y-135118000D01*
X125516000Y-127438000D02*
X120316000Y-127438000D01*
X120316000Y-137718000D02*
X120316000Y-136388000D01*
X122916000Y-135118000D02*
X120316000Y-135118000D01*
X125516000Y-137718000D02*
X122916000Y-137718000D01*
X125516000Y-137718000D02*
X125516000Y-127438000D01*
X120316000Y-135118000D02*
X120316000Y-127438000D01*
%TD*%
M02*
